HIERARCHY
ROOT Root
{
	OFFSET -0.000007 0.000445 0.000000
	CHANNELS 6 Xposition Yposition Zposition Xrotation Yrotation Zrotation
	JOINT Body
	{
		OFFSET 0.000000 0.000000 2.143352
		CHANNELS 6 Xposition Yposition Zposition Xrotation Yrotation Zrotation
		JOINT Wool
		{
			OFFSET 0.000000 0.000000 1.211460
			CHANNELS 6 Xposition Yposition Zposition Xrotation Yrotation Zrotation
			End Site
			{
				OFFSET 0.000000 0.000000 1.000000
			}
		}
		JOINT Head
		{
			OFFSET 2.050163 0.000000 1.211460
			CHANNELS 6 Xposition Yposition Zposition Xrotation Yrotation Zrotation
			End Site
			{
				OFFSET 0.000000 0.000000 1.000000
			}
		}
		JOINT Tail
		{
			OFFSET -1.739532 0.000000 1.800304
			CHANNELS 6 Xposition Yposition Zposition Xrotation Yrotation Zrotation
			End Site
			{
				OFFSET 0.000000 0.000000 -1.096757
			}
		}
		JOINT Femur.BR
		{
			OFFSET -1.458411 -0.841292 0.979440
			CHANNELS 6 Xposition Yposition Zposition Xrotation Yrotation Zrotation
			JOINT Leg.BR
			{
				OFFSET 0.308560 0.000000 -0.752393
				CHANNELS 3 Xrotation Yrotation Zrotation
				End Site
				{
					OFFSET -0.667856 0.000000 -1.289117
				}
			}
		}
		JOINT Sternum.R
		{
			OFFSET 1.436668 -0.841292 1.079381
			CHANNELS 6 Xposition Yposition Zposition Xrotation Yrotation Zrotation
			JOINT Leg.FR
			{
				OFFSET -0.225208 0.000000 -0.824895
				CHANNELS 3 Xrotation Yrotation Zrotation
				End Site
				{
					OFFSET 0.310631 0.000000 -1.397838
				}
			}
		}
		JOINT Femur.BL
		{
			OFFSET -1.458411 0.827921 0.979440
			CHANNELS 6 Xposition Yposition Zposition Xrotation Yrotation Zrotation
			JOINT Leg.BL
			{
				OFFSET 0.308560 -0.000000 -0.752393
				CHANNELS 3 Xrotation Yrotation Zrotation
				End Site
				{
					OFFSET -0.667856 -0.000000 -1.289117
				}
			}
		}
		JOINT Sternum.L
		{
			OFFSET 1.436668 0.827921 1.079381
			CHANNELS 6 Xposition Yposition Zposition Xrotation Yrotation Zrotation
			JOINT Leg.FL
			{
				OFFSET -0.225208 0.000000 -0.824895
				CHANNELS 3 Xrotation Yrotation Zrotation
				End Site
				{
					OFFSET 0.310631 0.000000 -1.397838
				}
			}
		}
	}
	JOINT Leg.FR.003
	{
		OFFSET 1.522091 -0.841292 1.000000
		CHANNELS 6 Xposition Yposition Zposition Xrotation Yrotation Zrotation
		JOINT Hoof.FR
		{
			OFFSET 0.000000 0.000000 0.000000
			CHANNELS 6 Xposition Yposition Zposition Xrotation Yrotation Zrotation
			End Site
			{
				OFFSET 0.528072 0.000000 -0.947424
			}
		}
	}
	JOINT Leg.FL.001
	{
		OFFSET 1.522091 0.827921 1.000000
		CHANNELS 6 Xposition Yposition Zposition Xrotation Yrotation Zrotation
		JOINT Hoof.FL
		{
			OFFSET 0.000000 0.000000 0.000000
			CHANNELS 6 Xposition Yposition Zposition Xrotation Yrotation Zrotation
			End Site
			{
				OFFSET 0.528072 -0.000000 -0.947424
			}
		}
	}
	JOINT Leg.BR.001
	{
		OFFSET -1.817707 -0.841292 1.081282
		CHANNELS 6 Xposition Yposition Zposition Xrotation Yrotation Zrotation
		JOINT Hoof.BR
		{
			OFFSET 0.000000 0.000000 0.000000
			CHANNELS 6 Xposition Yposition Zposition Xrotation Yrotation Zrotation
			End Site
			{
				OFFSET 0.590199 0.000000 -1.040613
			}
		}
	}
	JOINT Leg.BL.001
	{
		OFFSET -1.817707 0.827921 1.081282
		CHANNELS 6 Xposition Yposition Zposition Xrotation Yrotation Zrotation
		JOINT Hoof.BL
		{
			OFFSET 0.000000 0.000000 0.000000
			CHANNELS 6 Xposition Yposition Zposition Xrotation Yrotation Zrotation
			End Site
			{
				OFFSET 0.590198 0.000000 -1.040613
			}
		}
	}
}
MOTION
Frames: 9
Frame Time: 0.041667
-0.000007 0.000445 0.000000 -0.000000 0.000000 -0.000000 0.000000 0.000634 2.085334 -0.000000 0.000000 -0.000000 0.000000 0.000000 0.866575 -0.000000 0.000000 -0.000000 2.050163 0.000000 1.211342 -0.000000 0.000000 -0.000000 -1.739532 -0.000000 1.800304 16.147501 -0.000004 0.000003 -1.458411 -0.841292 0.979439 -0.011577 -4.478114 0.001856 -0.007884 7.078705 0.004444 1.436668 -0.841292 1.079381 -0.010722 6.869336 -0.000620 -0.009214 -10.881537 -0.002529 -1.458411 0.827921 0.979440 -0.011576 -4.477875 0.001856 -0.007883 7.078305 0.004442 1.436668 0.827921 1.079381 -0.010723 6.869350 -0.000620 -0.009213 -10.881552 -0.002530 1.522091 -0.841292 1.000000 0.000000 0.000000 -0.000000 -0.000000 0.000000 0.000000 0.000000 -0.000000 -0.000000 1.522091 0.827921 1.000000 -0.000000 0.000000 0.000000 -0.000000 -0.000000 0.000000 -0.000000 0.000000 0.000000 -1.817707 -0.841292 1.081282 -0.000000 0.000000 -0.000000 0.000000 0.000000 -0.000000 0.000000 0.000000 -0.000000 -1.817707 0.827921 1.081282 -0.000000 0.000000 -0.000000 0.000000 -0.000000 -0.000000 -0.000000 0.000000 0.000000 
-0.000007 0.000445 0.000000 -0.000000 0.000000 -0.000000 -0.000000 -0.000076 2.085598 -0.000000 0.000000 -0.000000 0.000000 0.000000 0.866575 -0.000000 0.000000 -0.000000 2.050163 0.000000 1.211089 -0.478339 0.000000 0.000000 -1.739532 -0.000000 1.800304 15.912918 -0.000004 0.000003 -1.458411 -0.841291 0.979440 0.001384 -4.458844 -0.000222 0.000943 7.048305 -0.000531 1.436668 -0.841292 1.079381 0.001284 6.842186 0.000074 0.001100 -10.838719 0.000302 -1.458411 0.827921 0.979440 0.001382 -4.458607 -0.000221 0.000940 7.047920 -0.000531 1.436668 0.827921 1.079381 0.001281 6.842174 0.000074 0.001099 -10.838697 0.000301 1.522091 -0.841292 1.000000 0.000000 0.000000 -0.000000 -0.000000 0.000000 0.000000 0.000000 -0.000000 -0.000000 1.522091 0.827921 1.000000 -0.000000 0.000000 0.000000 -0.000000 -0.000000 0.000000 -0.000000 0.000000 0.000000 -1.817707 -0.841292 1.081282 -0.000000 0.000000 -0.000000 0.000000 0.000000 -0.000000 0.000000 0.000000 -0.000000 -1.817707 0.827921 1.081282 -0.000000 0.000000 -0.000000 0.000000 -0.000000 -0.000000 -0.000000 0.000000 0.000000 
-0.000007 0.000445 0.000000 -0.000000 0.000000 -0.000000 -0.000000 -0.002221 2.086411 -0.000000 0.000000 -0.000000 0.000000 0.000000 0.866575 -0.000000 0.000000 -0.000000 2.050163 0.000000 1.210001 -1.825934 0.000000 0.000000 -1.739532 -0.000000 1.800304 15.203192 -0.000004 0.000003 -1.458411 -0.841292 0.979440 0.040589 -4.399368 -0.006481 0.027538 6.954493 -0.015529 1.436668 -0.841292 1.079381 0.037647 6.758307 0.002137 0.032110 -10.706434 0.008799 -1.458411 0.827921 0.979440 0.040589 -4.399129 -0.006481 0.027540 6.954104 -0.015530 1.436668 0.827921 1.079381 0.037645 6.758274 0.002137 0.032109 -10.706371 0.008798 1.522091 -0.841292 1.000000 0.000000 0.000000 -0.000000 -0.000000 0.000000 0.000000 0.000000 -0.000000 -0.000000 1.522091 0.827921 1.000000 -0.000000 0.000000 0.000000 -0.000000 -0.000000 0.000000 -0.000000 0.000000 0.000000 -1.817707 -0.841292 1.081282 -0.000000 0.000000 -0.000000 0.000000 0.000000 -0.000000 0.000000 0.000000 -0.000000 -1.817707 0.827921 1.081282 -0.000000 0.000000 -0.000000 0.000000 -0.000000 -0.000000 -0.000000 0.000000 0.000000 
-0.000007 0.000445 0.000000 -0.000000 0.000000 -0.000000 -0.000000 -0.005790 2.087797 -0.000000 0.000000 -0.000000 0.000000 0.000000 0.866575 -0.000000 0.000000 -0.000000 2.050163 0.000000 1.207596 -3.556418 0.000000 0.000000 -1.739532 -0.000000 1.800304 14.020382 -0.000004 0.000003 -1.458411 -0.841291 0.979440 0.105914 -4.297319 -0.016826 0.071534 6.793533 -0.040349 1.436668 -0.841292 1.079381 0.098409 6.614126 0.005448 0.083146 -10.478991 0.022725 -1.458411 0.827921 0.979440 0.105911 -4.297079 -0.016825 0.071535 6.793131 -0.040349 1.436668 0.827921 1.079382 0.098407 6.614091 0.005448 0.083145 -10.478931 0.022725 1.522091 -0.841292 1.000000 0.000000 0.000000 -0.000000 -0.000000 0.000000 0.000000 0.000000 -0.000000 -0.000000 1.522091 0.827921 1.000000 -0.000000 0.000000 0.000000 -0.000000 -0.000000 0.000000 -0.000000 0.000000 0.000000 -1.817707 -0.841292 1.081282 -0.000000 0.000000 -0.000000 0.000000 0.000000 -0.000000 0.000000 0.000000 -0.000000 -1.817707 0.827921 1.081282 -0.000000 0.000000 -0.000000 0.000000 -0.000000 -0.000000 -0.000000 0.000000 0.000000 
-0.000007 0.000445 0.000000 -0.000000 0.000000 -0.000000 -0.000000 -0.010709 2.089765 -0.000000 0.000000 -0.000000 0.000000 0.000000 0.866575 -0.000000 0.000000 -0.000000 2.050163 0.000000 1.203763 -4.904072 0.000000 0.000000 -1.739532 0.000000 1.800304 12.386821 -0.000004 0.000003 -1.458411 -0.841291 0.979440 0.196090 -4.151263 -0.030988 0.131688 6.563160 -0.074262 1.436668 -0.841292 1.079381 0.182702 6.407069 0.009754 0.152282 -10.152299 0.041472 -1.458411 0.827921 0.979439 0.196092 -4.151023 -0.030988 0.131690 6.562764 -0.074263 1.436668 0.827921 1.079381 0.182700 6.407032 0.009754 0.152282 -10.152232 0.041471 1.522091 -0.841292 1.000000 0.000000 0.000000 -0.000000 -0.000000 0.000000 0.000000 0.000000 -0.000000 -0.000000 1.522091 0.827921 1.000000 -0.000000 0.000000 0.000000 -0.000000 -0.000000 0.000000 -0.000000 0.000000 0.000000 -1.817707 -0.841292 1.081282 -0.000000 0.000000 -0.000000 0.000000 0.000000 -0.000000 0.000000 0.000000 -0.000000 -1.817707 0.827921 1.081282 -0.000000 0.000000 -0.000000 0.000000 -0.000000 -0.000000 -0.000000 0.000000 0.000000 
-0.000007 0.000445 0.000000 -0.000000 0.000000 -0.000000 -0.000000 -0.016822 2.092298 -0.000000 0.000000 -0.000000 0.000000 0.000000 0.866575 -0.000000 0.000000 -0.000000 2.050163 0.000000 1.198842 -5.382914 0.000000 -0.000001 -1.739532 -0.000000 1.800304 10.351916 -0.000003 0.000002 -1.458411 -0.841292 0.979440 0.307938 -3.961168 -0.048930 0.206252 6.263333 -0.115856 1.436668 -0.841292 1.079381 0.288415 6.136375 0.014667 0.236151 -9.725047 0.064021 -1.458411 0.827921 0.979440 0.307936 -3.960930 -0.048930 0.206251 6.262928 -0.115855 1.436668 0.827921 1.079381 0.288412 6.136364 0.014667 0.236151 -9.725026 0.064020 1.522091 -0.841292 1.000000 0.000000 0.000000 -0.000000 -0.000000 0.000000 0.000000 0.000000 -0.000000 -0.000000 1.522091 0.827921 1.000000 -0.000000 0.000000 0.000000 -0.000000 -0.000000 0.000000 -0.000000 0.000000 0.000000 -1.817707 -0.841292 1.081282 -0.000000 0.000000 -0.000000 0.000000 0.000000 -0.000000 0.000000 0.000000 -0.000000 -1.817707 0.827921 1.081282 -0.000000 0.000000 -0.000000 0.000000 -0.000000 -0.000000 -0.000000 0.000000 0.000000 
-0.000007 0.000445 0.000000 -0.000000 0.000000 -0.000000 -0.000000 -0.023883 2.095350 -0.000000 0.000000 -0.000000 0.000000 0.000000 0.866575 -0.000000 0.000000 -0.000000 2.050163 0.000000 1.192886 -4.383210 0.000000 -0.000001 -1.739532 0.000000 1.800304 7.996804 -0.000003 0.000002 -1.458411 -0.841291 0.979440 0.437044 -3.729255 -0.069894 0.291750 5.897528 -0.163112 1.436668 -0.841292 1.079381 0.411933 5.804241 0.019701 0.329959 -9.200594 0.088979 -1.458411 0.827921 0.979440 0.437041 -3.729012 -0.069894 0.291748 5.897135 -0.163109 1.436668 0.827921 1.079381 0.411931 5.804256 0.019701 0.329961 -9.200611 0.088979 1.522091 -0.841292 1.000000 0.000000 0.000000 -0.000000 -0.000000 0.000000 0.000000 0.000000 -0.000000 -0.000000 1.522091 0.827921 1.000000 -0.000000 0.000000 0.000000 -0.000000 -0.000000 0.000000 -0.000000 0.000000 0.000000 -1.817707 -0.841292 1.081282 -0.000000 0.000000 -0.000000 0.000000 0.000000 -0.000000 0.000000 0.000000 -0.000000 -1.817707 0.827921 1.081282 -0.000000 0.000000 -0.000000 0.000000 -0.000000 -0.000000 -0.000000 0.000000 0.000000 
-0.000007 0.000445 0.000000 -0.000000 0.000000 -0.000000 -0.000000 -0.031557 2.098842 -0.000000 0.000000 -0.000000 0.000000 0.000000 0.866575 -0.000000 0.000000 -0.000000 2.050163 0.000000 1.185498 -1.562480 0.000000 -0.000001 -1.739532 -0.000000 1.800304 5.433828 -0.000002 0.000002 -1.458411 -0.841292 0.979440 0.577270 -3.460255 -0.092987 0.383831 5.473217 -0.213437 1.436668 -0.841292 1.079381 0.548076 5.416241 0.024329 0.427827 -8.587624 0.114705 -1.458411 0.827921 0.979440 0.577268 -3.460007 -0.092987 0.383831 5.472812 -0.213434 1.436668 0.827921 1.079381 0.548073 5.416227 0.024329 0.427826 -8.587602 0.114705 1.522091 -0.841292 1.000000 0.000000 0.000000 -0.000000 -0.000000 0.000000 0.000000 0.000000 -0.000000 -0.000000 1.522091 0.827921 1.000000 -0.000000 0.000000 0.000000 -0.000000 -0.000000 0.000000 -0.000000 0.000000 0.000000 -1.817707 -0.841292 1.081282 -0.000000 0.000000 -0.000000 0.000000 0.000000 -0.000000 0.000000 0.000000 -0.000000 -1.817707 0.827921 1.081282 -0.000000 0.000000 -0.000000 0.000000 -0.000000 -0.000000 -0.000000 0.000000 0.000000 
-0.000007 0.000445 0.000000 -0.000000 0.000000 -0.000000 -0.000000 -0.039442 2.102666 -0.000000 0.000000 -0.000000 0.000000 0.000000 0.866575 -0.000000 0.000000 -0.000000 2.050163 0.000000 1.176807 2.062250 -0.000000 -0.000001 -1.739532 -0.000000 1.800304 2.798661 -0.000002 0.000002 -1.458411 -0.841292 0.979440 0.721311 -3.161717 -0.117086 0.477447 5.002273 -0.263924 1.436668 -0.841292 1.079382 0.690339 4.981744 0.028077 0.523420 -7.900812 0.139505 -1.458411 0.827921 0.979440 0.721309 -3.161471 -0.117086 0.477445 5.001857 -0.263921 1.436668 0.827921 1.079382 0.690336 4.981760 0.028077 0.523421 -7.900832 0.139504 1.522091 -0.841292 1.000000 0.000000 0.000000 -0.000000 -0.000000 0.000000 0.000000 0.000000 -0.000000 -0.000000 1.522091 0.827921 1.000000 -0.000000 0.000000 0.000000 -0.000000 -0.000000 0.000000 -0.000000 0.000000 0.000000 -1.817707 -0.841292 1.081282 -0.000000 0.000000 -0.000000 0.000000 0.000000 -0.000000 0.000000 0.000000 -0.000000 -1.817707 0.827921 1.081282 -0.000000 0.000000 -0.000000 0.000000 -0.000000 -0.000000 -0.000000 0.000000 0.000000 
